<?xml version="1.0" encoding="UTF-8"?>
<svg version="1.1" xmlns="http://www.w3.org/2000/svg" width="1080" height="1080">
<path d="M0 0 C356.4 0 712.8 0 1080 0 C1080 356.4 1080 712.8 1080 1080 C723.6 1080 367.2 1080 0 1080 C0 723.6 0 367.2 0 0 Z M537.61328125 50.65234375 C531.95378167 58.88808043 530.07883348 68.67034353 527.67578125 78.2265625 C524.27349544 91.74725378 520.24591047 104.98728065 515.88916016 118.22900391 C515.03030224 120.90556549 514.23291135 123.59358314 513.44921875 126.29296875 C512.25015878 130.34501992 510.70083944 134.12806318 509 138 C507.8868051 141.00341837 506.85156925 144.03276108 505.8125 147.0625 C503.1904581 154.6204843 500.53062233 162.16349651 497.8125 169.6875 C497.49192627 170.58283447 497.17135254 171.47816895 496.84106445 172.40063477 C495.11142884 177.17196643 493.22459626 181.80995081 491.12719727 186.42993164 C489.73252038 189.60986745 488.44134391 192.82788562 487.16015625 196.0546875 C486.90891495 196.68717911 486.65767365 197.31967072 486.39881897 197.97132874 C485.35824584 200.59564656 484.32049417 203.22106937 483.28442383 205.84716797 C480.4368338 213.05723361 477.52839447 220.21445555 474.27075195 227.25195312 C471.80779349 232.57818953 469.44572846 237.95023595 467.0625 243.3125 C466.53108398 244.50657471 465.99966797 245.70064941 465.45214844 246.9309082 C462.83215984 252.82910318 460.24492433 258.73542156 457.75 264.6875 C455.48697751 270.0203617 452.94093594 275.18048529 450.31152344 280.33862305 C447.20353825 286.48250099 444.34543106 292.73096114 441.5 299 C438.04617434 306.60470476 434.50180846 314.13737545 430.72460938 321.58642578 C424.89032012 331.43488196 424.89032012 331.43488196 422 342 C420.91460937 342.12246094 419.82921875 342.24492187 418.7109375 342.37109375 C413.30785424 343.04972478 407.97503048 344.05536828 402.625 345.0625 C401.49247803 345.27438965 400.35995605 345.4862793 399.19311523 345.70458984 C396.61431265 346.18823167 394.03576658 346.67308698 391.45751953 347.15966797 C388.24801407 347.76530531 385.03797048 348.36800709 381.82763672 348.96923828 C377.17147565 349.84148808 372.51613718 350.71802517 367.86126709 351.59713745 C366.01321152 351.94569069 364.16494832 352.29314506 362.31646729 352.63943481 C353.38732478 354.31381335 344.52068212 356.02527836 335.72631836 358.32080078 C330.77736413 359.55371837 325.76295647 360.44472879 320.75 361.375 C318.47376496 361.80888258 316.1977277 362.24380385 313.921875 362.6796875 C310.4909822 363.33516758 307.05982698 363.98875863 303.62695312 364.63378906 C300.4149745 365.2413836 297.20735756 365.86852309 294 366.5 C293.04061523 366.67708496 292.08123047 366.85416992 291.09277344 367.03662109 C281.24615024 369.00975019 272.18939862 372.79471582 266 381 C260.47389348 390.43026489 257.99838731 399.32091581 260.8359375 410.20703125 C264.60096491 420.04916665 269.91048049 426.78570133 279.375 431.5625 C289.6559763 435.78546395 297.57372118 433.81388398 308 431.203125 C313.65188367 429.80844497 319.35121008 428.68430542 325.0625 427.5625 C333.63297063 425.8703999 342.19703729 424.1537254 350.75 422.375 C352.25240234 422.06344971 352.25240234 422.06344971 353.78515625 421.74560547 C359.99628457 420.44780436 366.16973226 419.05855101 372.31640625 417.48046875 C375.57727734 416.89664467 378.69453236 416.9223685 382 417 C374.83007442 430.96049001 367.02019692 444.51264554 359 458 C358.09894531 459.5154541 358.09894531 459.5154541 357.1796875 461.06152344 C350.22529212 472.71615681 343.07983252 484.15659269 335.24072266 495.23730469 C334.02530384 496.96405082 332.82786692 498.70175502 331.63671875 500.4453125 C324.47492403 510.92232756 316.84629987 521.02829158 309 531 C308.39800781 531.77730469 307.79601562 532.55460937 307.17578125 533.35546875 C302.63958371 539.14303113 297.81856815 544.57057027 292.80859375 549.9453125 C290.8289852 552.07190786 288.93302407 554.25192065 287.05078125 556.46484375 C281.87226521 562.40488555 276.25605467 567.92995367 270.68603516 573.49926758 C268.76303818 575.42444702 266.84819426 577.35749031 264.93359375 579.29101562 C258.63507336 585.61715106 252.32263427 591.64802943 245.2722168 597.14038086 C238.4018674 602.76318642 232.38027748 610.0475461 231 619 C230.1465637 630.4584316 231.28686138 638.8802396 238.75 647.8125 C245.49715183 654.91080471 252.7578071 658.95054762 262.625 659.4375 C275.04028369 659.13094979 282.93084706 652.98078392 291.41943359 644.54785156 C292.97513988 643.02434556 294.5642321 641.55009185 296.17578125 640.0859375 C304.86055227 632.17984443 313.18842301 623.9190518 321.5 615.625 C322.06648254 615.06110565 322.63296509 614.4972113 323.21661377 613.91622925 C329.36423035 607.79077929 335.37511985 601.61564852 341 595 C342.45445517 593.39231627 343.91220895 591.78760285 345.375 590.1875 C369.01496503 563.94753881 389.64534647 533.95243167 407.92089844 503.77246094 C409.07550373 501.87598256 410.24368583 499.98834597 411.4140625 498.1015625 C419.57580857 484.90811991 427.32181951 471.47942323 435 458 C435.45197754 457.2069043 435.90395508 456.41380859 436.36962891 455.59667969 C443.20227411 443.56043719 449.64887925 431.31441665 456.11279297 419.07763672 C456.47107178 418.40019913 456.82935059 417.72276154 457.19848633 417.02479553 C457.8700959 415.75454028 458.54074679 414.48377744 459.21020508 413.21238708 C460.13146769 411.4703126 461.06565343 409.73509216 462 408 C462.29548737 407.36119904 462.59097473 406.72239807 462.89541626 406.0642395 C464.52783138 402.74509669 465.50130394 401.20189793 468.97900391 399.79394531 C470.13319824 399.64022461 471.28739258 399.48650391 472.4765625 399.328125 C473.77464844 399.14024414 475.07273437 398.95236328 476.41015625 398.75878906 C477.81498995 398.58824917 479.21994113 398.41867463 480.625 398.25 C482.06934319 398.05419707 483.51335408 397.85592805 484.95703125 397.65527344 C488.60781466 397.15673248 492.26223488 396.69765336 495.92004395 396.25390625 C499.06042457 395.87055091 502.19779849 395.46373905 505.3359375 395.0625 C514.34308426 393.94993559 523.32352099 393.00924474 532.3828125 392.46386719 C533.48604858 392.39623672 533.48604858 392.39623672 534.61157227 392.32723999 C536.40766022 392.21726426 538.20382267 392.10850625 540 392 C539.99962028 392.70586978 539.99924056 393.41173957 539.99884933 394.13899934 C539.97632071 436.26230214 539.95923835 478.38560423 539.94893467 520.50891187 C539.94768442 525.60148162 539.94639006 530.69405136 539.94506836 535.78662109 C539.94480605 536.80017857 539.94454374 537.81373605 539.94427348 538.85800739 C539.93995848 555.12740625 539.93209468 571.39680146 539.9228472 587.66619818 C539.91339325 604.44264213 539.90791998 621.21908422 539.90591151 637.99553072 C539.90467946 647.383777 539.90176752 656.7720157 539.89426994 666.16025925 C539.85134499 721.58840916 540.1546711 776.98150511 542.21972656 832.37900543 C542.31570625 834.96126149 542.40982517 837.54358077 542.50366211 840.12591553 C543.43597371 865.66822667 544.55307507 891.19975612 545.87600327 916.72483063 C545.99711898 919.06923288 546.11636286 921.41372406 546.23526001 923.75823975 C547.13175498 941.32762662 548.30786923 958.84565269 549.94152832 976.36294556 C550.87736827 986.39875257 551.63758325 996.43170295 552.28215027 1006.49012756 C553.07154543 1018.58978191 555.10852288 1027.79347001 564.3125 1036.3125 C572.65162471 1042.82064298 580.50349932 1044.11539996 591 1043 C600.99626849 1041.02945621 607.7030913 1035.36899172 613.95703125 1027.5546875 C623.59978783 1012.06304579 617.56901641 988.11603365 616.07217407 970.78529358 C615.05555002 958.99045716 614.20809543 947.18835342 613.4375 935.375 C613.37495026 934.41951263 613.31240051 933.46402527 613.24795532 932.47958374 C612.17440205 915.9388531 611.34108332 899.3903637 610.64624023 882.82958984 C610.60950699 881.97325958 610.57277374 881.11692932 610.53492737 880.23464966 C610.46786975 878.66141585 610.40319131 877.08807754 610.34165955 875.51461792 C610.17915755 871.70180829 609.90329105 867.93132708 609.49072266 864.13696289 C608.93037936 858.77074946 608.79545349 853.435059 608.71875 848.04296875 C608.70034058 847.01931717 608.68193115 845.99566559 608.66296387 844.94099426 C608.60477732 841.68988245 608.5518412 838.43871873 608.5 835.1875 C608.44784477 831.97556642 608.39432239 828.76368052 608.33703613 825.55183411 C608.30168247 823.56579183 608.26904057 821.57969789 608.2401123 819.59355164 C608.14350693 814.12024582 607.93907757 808.66170319 607.65009975 803.19578552 C606.90811571 789.00959429 606.69324748 774.82249853 606.49474788 760.61994529 C606.44386245 757.03254755 606.38900232 753.44521035 606.33460999 749.85786438 C606.23274457 743.10123559 606.13432126 736.34456148 606.03721577 729.58786279 C605.92626819 721.88010532 605.81135975 714.17240838 605.69616115 706.46471345 C605.45978068 690.64320448 605.22823597 674.82162869 605 659 C606.11992088 659.71609436 606.11992088 659.71609436 607.26246643 660.44665527 C608.73851601 661.38861755 608.73851601 661.38861755 610.24438477 662.34960938 C611.21787369 662.97138062 612.19136261 663.59315186 613.1943512 664.23376465 C625.06110766 671.70422379 637.3640137 676.96266072 650.69433594 681.24780273 C652.219901 681.74550138 653.73915123 682.26303202 655.25097656 682.80102539 C660.69955725 684.72542025 666.0301924 685.89150617 671.75 686.6875 C673.10593262 686.87638794 673.10593262 686.87638794 674.48925781 687.0690918 C716.54411031 692.44050456 757.59793746 679.0850915 791.3671875 654.078125 C794.99130944 651.21754211 798.39953637 648.15634335 801.7890625 645.0234375 C803.54665377 643.41489991 805.31875138 641.91074626 807.1875 640.4375 C810.85692199 637.25733428 813.89819077 633.72611406 817 630 C817.6290625 629.25878906 818.258125 628.51757812 818.90625 627.75390625 C824.16216916 621.40300393 828.63259594 614.68346703 832.95361328 607.68017578 C833.88292091 606.18799308 834.84360839 604.7154559 835.80859375 603.24609375 C845.51361884 587.84805164 851.0945039 569.66269407 855 552 C855.24339111 550.98534668 855.24339111 550.98534668 855.49169922 549.95019531 C865.80811876 506.23583138 852.88382997 458.53540098 830 421 C827.49429174 417.19020566 824.82847341 413.57487612 822 410 C821.02546875 408.72189453 821.02546875 408.72189453 820.03125 407.41796875 C809.67317548 394.21915365 797.48198713 382.93086716 784 373 C782.78860352 372.08299316 782.78860352 372.08299316 781.55273438 371.14746094 C762.96224251 357.267893 741.91592792 348.2255062 720 341 C719.01918457 340.66919434 718.03836914 340.33838867 717.02783203 339.99755859 C681.67886598 328.2306203 643.07319159 324.07624938 606 325 C606.03029297 324.1656543 606.06058594 323.33130859 606.09179688 322.47167969 C606.66977348 306.31056465 607.17308982 290.17428196 607 274 C606.34 274 605.68 274 605 274 C605.01740234 273.10861328 605.01740234 273.10861328 605.03515625 272.19921875 C605.04417969 271.37035156 605.05320312 270.54148437 605.0625 269.6875 C605.07990234 268.48673828 605.07990234 268.48673828 605.09765625 267.26171875 C605.01849451 264.61771664 604.8032829 262.09345275 604.51953125 259.46875 C603.74754466 251.30531541 603.77929707 243.11693202 603.66925049 234.92388916 C603.18687412 201.00650979 601.64519878 167.13143522 600.10216522 133.24925232 C600.0004536 131.00998639 599.89953464 128.77068616 599.79888916 126.53137207 C599.41855071 118.0746219 599.028965 109.61838735 598.6239624 101.16278076 C598.50112483 98.58512166 598.38034607 96.0073635 598.26177979 93.42950439 C598.09707243 89.87448752 597.92294949 86.32005561 597.74609375 82.765625 C597.70031693 81.74385162 597.6545401 80.72207825 597.6073761 79.66934204 C596.90745524 66.17123838 595.4560682 54.77868388 585.1875 45.125 C576.79258664 38.46262036 568.55744658 36.68521494 557.95849609 37.69091797 C549.47015233 39.03051448 542.88343361 44.11648191 537.61328125 50.65234375 Z " fill="#010101" transform="translate(0,0)"/>
<path d="M0 0 C8.24214061 4.78178538 13.43010756 11.04731132 16.80859375 19.91015625 C18.56285926 26.63979626 18.73696153 33.65711918 19.05664062 40.57324219 C19.10394821 41.54380554 19.1512558 42.5143689 19.19999695 43.51434326 C19.35508841 46.71255036 19.50575828 49.91094842 19.65625 53.109375 C19.7643074 55.36257968 19.87258775 57.61577369 19.9810791 59.86895752 C20.20821227 64.59972378 20.43326766 69.33058278 20.65673828 74.06152344 C20.93927408 80.04134493 21.22595226 86.02095841 21.51401424 92.00051594 C22.95770438 121.99238947 24.38674069 151.96956693 24.88870239 181.99468994 C25.27953354 205.0637487 25.90193655 228.12493394 26.5625 251.1875 C26.58562634 251.99557224 26.60875267 252.80364449 26.6325798 253.63620377 C26.91828759 263.61173646 27.20738216 273.5871675 27.5 283.5625 C28.56752502 283.59861137 28.56752502 283.59861137 29.65661621 283.63545227 C89.16851929 285.68508896 157.35531861 293.76789302 205.5 332.5625 C206.30824219 333.18253906 207.11648438 333.80257813 207.94921875 334.44140625 C214.81084386 339.77343832 221.18375567 345.60620446 227.5 351.5625 C228.29535156 352.30371094 229.09070313 353.04492188 229.91015625 353.80859375 C253.89207328 376.85999549 269.07382934 409.08241123 275.99609375 441.22607422 C276.31609618 442.70980641 276.64806499 444.19104755 276.99609375 445.66845703 C282.23233985 468.07937395 281.09206726 493.37175692 275.5 515.5625 C275.17056396 516.8932959 275.17056396 516.8932959 274.83447266 518.25097656 C268.66747081 542.61347075 258.58476863 566.72364835 241.5 585.5625 C240.35724609 586.86380859 240.35724609 586.86380859 239.19140625 588.19140625 C235.41827928 592.44779086 231.57340864 596.59092658 227.5 600.5625 C226.86835937 601.22765625 226.23671875 601.8928125 225.5859375 602.578125 C216.94293799 611.55707148 207.00152979 618.12067476 196.32348633 624.46435547 C194.95935781 625.28586438 193.60681591 626.12666751 192.26049805 626.97705078 C186.2038921 630.74754675 180.09335321 633.63496585 173.4375 636.1875 C172.43887939 636.57429932 171.44025879 636.96109863 170.41137695 637.35961914 C161.8991173 640.57291034 153.41603571 642.82372814 144.5 644.5625 C143.04013672 644.87960937 143.04013672 644.87960937 141.55078125 645.203125 C105.63160149 652.90402112 65.77014726 644.27927284 35.04296875 624.40625 C32.80884063 622.84651534 30.65073402 621.23302263 28.5 619.5625 C27.84 619.2325 27.18 618.9025 26.5 618.5625 C26.73928084 635.14977379 26.9825805 651.73698322 27.23049068 668.32413006 C27.34554361 676.0281538 27.45934725 683.73219198 27.57006836 691.4362793 C27.66672735 698.16167872 27.7658744 704.88703639 27.86784559 711.61235744 C27.92161071 715.16378195 27.97424137 718.71521402 28.0238781 722.26669884 C28.22480234 736.58777163 28.52213744 750.8805908 29.27833557 765.18382263 C29.57278721 770.7808231 29.69963106 776.37670481 29.78125 781.98046875 C29.81897297 784.09961004 29.85673443 786.21875065 29.89453125 788.33789062 C29.9483366 791.56744565 30.00074972 794.79701867 30.05224609 798.02661133 C30.10430494 801.2196332 30.16132813 804.41253948 30.21875 807.60546875 C30.23232544 808.55979294 30.24590088 809.51411713 30.2598877 810.49736023 C30.35486571 815.68147197 30.68720448 820.76493695 31.24700928 825.91819763 C31.7455926 831.12947591 31.92045149 836.36101896 32.1484375 841.58984375 C32.26611872 844.16220169 32.38404857 846.73454826 32.50219727 849.30688477 C32.56353123 850.65821128 32.62482016 852.00953984 32.68606567 853.36087036 C33.61554446 873.79484572 34.61774046 894.21984046 36.0625 914.625 C36.12048767 915.45482391 36.17847534 916.28464783 36.23822021 917.13961792 C36.8818872 926.27160025 37.66280074 935.38149589 38.55859375 944.4921875 C41.92835282 979.09440883 41.92835282 979.09440883 31.7890625 991.6875 C24.63999295 999.45119544 16.18454851 1002.56099436 5.8125 1003.0625 C-2.86490988 1002.90573489 -9.44188071 1000.18137213 -15.91796875 994.40625 C-27.6724972 981.9023436 -26.64298633 965.10082902 -27.71508789 948.8684082 C-28.07594372 943.40962202 -28.45785162 937.95770782 -28.93969727 932.50830078 C-30.50251889 914.79628999 -31.51247741 897.06660084 -32.4375 879.3125 C-32.50096304 878.1035696 -32.50096304 878.1035696 -32.56570816 876.87021637 C-33.96197827 850.26516402 -35.12933869 823.65428552 -36.09321976 797.03010559 C-36.18448294 794.52046601 -36.27756106 792.01089982 -36.37106323 789.50134277 C-38.42352617 734.00353852 -38.6478833 678.50578429 -38.60353836 622.97837827 C-38.59620626 613.5403732 -38.59487198 604.10236954 -38.59374207 594.66436203 C-38.59157967 577.84769062 -38.584998 561.03102419 -38.57543945 544.21435547 C-38.56619108 527.92594426 -38.55914711 511.63753442 -38.55493164 495.34912109 C-38.55453756 493.83068832 -38.55453756 493.83068832 -38.55413551 492.28158014 C-38.55283001 487.20075643 -38.55156641 482.11993271 -38.55032361 477.03910899 C-38.54003904 435.2135692 -38.52249991 393.38803489 -38.5 351.5625 C-42.58921682 351.86128237 -46.67793415 352.1664545 -50.76660156 352.47265625 C-51.90835846 352.5560022 -53.05011536 352.63934814 -54.22647095 352.72521973 C-64.37786955 353.49068336 -74.43000898 354.71272609 -84.50341797 356.16699219 C-87.31988094 356.57256285 -90.13821352 356.96272678 -92.95703125 357.3515625 C-94.77876983 357.60849738 -96.60038973 357.86627549 -98.421875 358.125 C-99.24991638 358.239646 -100.07795776 358.35429199 -100.93109131 358.47241211 C-107.39505058 359.37935787 -107.39505058 359.37935787 -113.5 361.5625 C-115.49132538 364.11265663 -115.49132538 364.11265663 -116.9453125 367.328125 C-117.38277298 368.19938271 -117.38277298 368.19938271 -117.82907104 369.08824158 C-118.45334855 370.33701379 -119.06866327 371.59029954 -119.67578125 372.84750366 C-120.63846131 374.84036653 -121.62408061 376.82023624 -122.6171875 378.7980957 C-123.9581629 381.46938935 -125.29230046 384.14391357 -126.62207031 386.82080078 C-129.13668076 391.85783895 -131.79291203 396.81409016 -134.5 401.75 C-134.97300537 402.61343018 -135.44601074 403.47686035 -135.93334961 404.36645508 C-144.74309621 420.33881269 -153.8919078 436.14390157 -163.38134766 451.72265625 C-164.6388441 453.79085643 -165.88762676 455.8642139 -167.13671875 457.9375 C-172.66319046 467.08068112 -178.38424199 476.05244476 -184.37841797 484.89550781 C-185.40303537 486.41838279 -186.40767995 487.95464716 -187.41015625 489.4921875 C-193.16799754 498.31843254 -199.44325464 506.74793928 -205.73925781 515.19482422 C-207.38395944 517.40645988 -209.01781285 519.62563213 -210.6484375 521.84765625 C-216.77487407 530.15961668 -223.19371834 538.12278447 -230.01538086 545.87451172 C-231.07691827 547.08146283 -232.13459591 548.29181308 -233.18969727 549.50439453 C-243.9426349 561.85656301 -255.37363556 573.53657607 -266.9375 585.125 C-267.78013901 585.9715213 -267.78013901 585.9715213 -268.63980103 586.83514404 C-274.23311231 592.44877162 -279.83050562 598.00620858 -285.86547852 603.15112305 C-288.08629502 605.06875415 -290.14983438 607.13946615 -292.25 609.1875 C-299.92249203 616.05050893 -308.26445176 619.49926516 -318.62109375 618.97265625 C-328.52913668 617.56106262 -336.04387354 612.366333 -342.1015625 604.4765625 C-347.903463 595.62103016 -348.79033495 586.35143094 -347.0703125 575.96875 C-343.78964522 564.46616347 -333.69342731 556.58760613 -324.88256836 549.20776367 C-318.20394756 543.52892031 -312.07512048 537.28823462 -305.89086914 531.08374023 C-303.9420313 529.12954376 -301.98790728 527.18074853 -300.03320312 525.23242188 C-293.97812707 519.18092056 -287.99319185 513.13705176 -282.5 506.5625 C-281.58816769 505.50570891 -280.67543913 504.44969031 -279.76171875 503.39453125 C-273.42799717 495.96514311 -267.35296622 488.37706537 -261.5 480.5625 C-260.6651709 479.45068359 -260.6651709 479.45068359 -259.81347656 478.31640625 C-250.61359819 466.06074911 -250.61359819 466.06074911 -242.1875 453.26953125 C-240.5218194 450.59750195 -238.78418858 447.98935943 -237.02099609 445.38134766 C-222.20877648 423.45607598 -208.33597428 400.23444855 -196.5 376.5625 C-200.9223091 376.25396681 -204.6602241 376.74486178 -208.96875 377.79296875 C-217.46854057 379.80743874 -226.0049936 381.63915426 -234.54614258 383.46923828 C-237.29752366 384.05928824 -240.04818377 384.6526202 -242.79882812 385.24609375 C-252.28286142 387.28440277 -261.77054112 389.22767191 -271.31762695 390.94848633 C-273.89000319 391.44480595 -276.35890876 392.03355473 -278.875 392.75 C-288.28634458 394.8594393 -294.95697635 393.30497206 -303.2890625 388.60546875 C-311.55677606 383.34511085 -315.91903371 375.96132856 -318.5 366.5625 C-319.80466154 356.86909361 -318.30280659 348.8446061 -312.58203125 340.8984375 C-304.89331883 331.67198259 -296.09215965 328.20235159 -284.5 326.0625 C-283.46891113 325.85947266 -282.43782227 325.65644531 -281.37548828 325.44726562 C-278.0864425 324.8034229 -274.79391792 324.18089468 -271.5 323.5625 C-267.12458993 322.73131495 -262.74981018 321.89683578 -258.375 321.0625 C-257.27486572 320.85407471 -256.17473145 320.64564941 -255.04125977 320.4309082 C-248.46958404 319.1742219 -241.94912192 317.78540001 -235.4375 316.25 C-217.9130445 312.13930458 -200.17952683 308.92738512 -182.5 305.5625 C-181.48652496 305.36953339 -181.48652496 305.36953339 -180.45257568 305.17266846 C-176.6993572 304.4593548 -172.94440413 303.75612758 -169.1875 303.0625 C-168.33027344 302.90257568 -167.47304688 302.74265137 -166.58984375 302.57788086 C-163.14665058 301.9543076 -160.01289361 301.5625 -156.5 301.5625 C-156.33781982 301.02955322 -156.17563965 300.49660645 -156.00854492 299.94750977 C-154.08150509 293.87184445 -151.60009762 288.22511198 -148.8125 282.5 C-148.1472229 281.11711792 -148.1472229 281.11711792 -147.46850586 279.70629883 C-144.58461582 273.73182357 -141.61765819 267.80246198 -138.6171875 261.88598633 C-135.0271713 254.73736657 -131.73972359 247.4485649 -128.44360352 240.16088867 C-126.40795662 235.67080974 -124.34608216 231.21404015 -122.1015625 226.82421875 C-118.62050526 219.93737778 -115.62464047 212.82970826 -112.5625 205.75 C-111.36777385 202.99266635 -110.17103575 200.23621648 -108.97265625 197.48046875 C-108.67904205 196.80410873 -108.38542786 196.12774872 -108.08291626 195.43089294 C-106.2647717 191.26016536 -104.37333952 187.13166321 -102.43359375 183.015625 C-99.10244575 175.85185991 -96.29505092 168.50841088 -93.5 161.125 C-92.50355779 158.49993268 -91.50378737 155.87617387 -90.5 153.25390625 C-90.25245468 152.60660553 -90.00490936 151.95930481 -89.74986267 151.29238892 C-88.1054617 147.03017277 -86.33862194 142.83718165 -84.50390625 138.65234375 C-81.07961167 130.7572875 -78.2530228 122.68877206 -75.4375 114.5625 C-74.92949887 113.1066094 -74.42103642 111.65087969 -73.91210938 110.1953125 C-73.15957399 108.04288253 -72.40765083 105.89025733 -71.65853882 103.7366333 C-70.09542702 99.24552497 -68.49585283 94.76896493 -66.87890625 90.296875 C-64.57224777 83.85386962 -62.49106724 77.35916117 -60.5 70.8125 C-60.15678711 69.69069336 -59.81357422 68.56888672 -59.45996094 67.41308594 C-56.84638293 58.8199955 -54.38864863 50.19189985 -52.03369141 41.52490234 C-43.09666887 8.66315157 -43.09666887 8.66315157 -29.5 0.5625 C-20.16346305 -4.09462702 -9.49932222 -4.34530622 0 0 Z M-40.5 203.5625 C-41.5869838 205.85249396 -42.66959807 208.14440204 -43.75 210.4375 C-44.05035156 211.06914062 -44.35070312 211.70078125 -44.66015625 212.3515625 C-46.3443625 215.93498006 -47.90959842 219.53780745 -49.359375 223.22265625 C-51.88204547 229.60854672 -54.68794536 235.86226484 -57.5 242.125 C-57.77913239 242.74868469 -58.05826477 243.37236938 -58.34585571 244.01495361 C-62.94432587 254.28179868 -67.72898634 264.4448315 -72.71679688 274.52954102 C-75.14692909 279.49301086 -77.21805357 284.17982435 -78.5 289.5625 C-70.0767757 289.78837417 -61.80283706 288.91612531 -53.4375 288.0625 C-51.98506631 287.91756466 -50.53259256 287.77303019 -49.08007812 287.62890625 C-45.55291163 287.2780574 -42.02631797 286.92178883 -38.5 286.5625 C-38.37914546 258.87565344 -38.54736387 231.23455275 -39.5 203.5625 C-39.83 203.5625 -40.16 203.5625 -40.5 203.5625 Z M27.5 348.5625 C27.45326448 369.43338722 27.41800353 390.3042658 27.39637566 411.17519474 C27.38606623 420.86608187 27.37201224 430.55693648 27.34912109 440.24780273 C27.32917705 448.6950603 27.31628114 457.1422943 27.31182301 465.58957475 C27.30921736 470.06169485 27.30309982 474.53374754 27.28853989 479.00584602 C27.27493998 483.21729367 27.27078224 487.42864631 27.27378464 491.64011383 C27.27323555 493.18362126 27.26927247 494.72713194 27.26158905 496.27062035 C27.25158994 498.38337435 27.25404898 500.49577297 27.25949097 502.60853577 C27.25764738 503.78935258 27.25580379 504.97016939 27.25390434 506.18676853 C27.52319941 509.88072977 28.37567694 513.04088564 29.5 516.5625 C29.83257813 517.70847656 30.16515625 518.85445312 30.5078125 520.03515625 C36.24921054 538.48391429 46.2676448 552.54950754 61.5 564.5625 C62.21027344 565.13355469 62.92054688 565.70460938 63.65234375 566.29296875 C82.59525784 580.57107205 105.59713621 584.67314506 128.69360352 581.78637695 C154.54141469 578.07751842 177.54013789 562.72015879 193.2578125 542.046875 C196.84104923 537.08831078 199.77720535 532.49068057 201.5 526.5625 C202.16 526.5625 202.82 526.5625 203.5 526.5625 C216.9329013 495.50121591 218.17532863 464.31644188 207 432.2578125 C205.72428187 429.11502774 204.60485036 427.13509488 202.5 424.5625 C201.6020458 422.90808741 200.72879341 421.24012916 199.875 419.5625 C183.99254811 390.21703607 153.76550843 371.16269761 122.5 361.5625 C115.38646082 359.55543401 108.21559214 357.80011418 101.01098633 356.15307617 C98.91941449 355.66114498 96.84369403 355.10241501 94.7734375 354.52734375 C88.96531836 353.06513921 82.9845779 352.47952287 77.04858398 351.75756836 C74.96571396 351.50344232 72.88424205 351.23963611 70.80273438 350.97460938 C58.89796206 349.48375641 47.03661781 348.4844161 35.03295898 348.53881836 C34.30354851 348.54052788 33.57413803 348.5422374 32.82262421 348.54399872 C31.04841089 348.54840619 29.27420377 348.55519944 27.5 348.5625 Z " fill="#FBFBFA" transform="translate(578.5,40.4375)"/>
<path d="M0 0 C2.54069655 -0.0080663 5.08136705 -0.01392998 7.62207031 -0.01855469 C8.33452911 -0.02104218 9.04698792 -0.02352966 9.78103638 -0.02609253 C15.79653349 -0.03428627 21.75489653 0.24421721 27.75 0.75 C29.31113525 0.87979248 29.31113525 0.87979248 30.90380859 1.01220703 C48.77690668 2.60039658 66.83703599 4.58537457 84 10 C85.29508323 10.38576239 86.59067919 10.76980664 87.88671875 11.15234375 C91.94783047 12.36625233 95.97829691 13.661705 100 15 C100.99217529 15.32822754 100.99217529 15.32822754 102.00439453 15.66308594 C112.73165629 19.27289466 122.34812118 24.11067421 132 30 C133.06089844 30.63808594 134.12179687 31.27617187 135.21484375 31.93359375 C159.17716797 47.07929408 177.51097507 71.52852472 184.375 99.140625 C190.38027614 126.61476335 187.15743577 152.48777374 176 178 C175.34 178 174.68 178 174 178 C173.75636719 178.85722656 173.51273438 179.71445312 173.26171875 180.59765625 C165.89240299 200.46971206 144.68832996 217.22831882 126.0625 225.9375 C124.38709611 226.65397353 122.69813282 227.33919942 121 228 C120.41259033 228.24226318 119.82518066 228.48452637 119.2199707 228.73413086 C97.60895288 237.35879703 72.96136329 235.7789761 51.8125 226.875 C30.72178755 217.4044366 14.04433085 200.4330944 5.5625 178.9375 C4.69771728 176.62894898 3.84224645 174.31686811 3 172 C2.45666016 170.73349609 2.45666016 170.73349609 1.90234375 169.44140625 C0.05333411 164.43867454 -0.1243807 159.45606312 -0.12025452 154.16629028 C-0.12110894 153.5037118 -0.12196337 152.84113333 -0.12284368 152.15847671 C-0.12448262 149.95214001 -0.11900326 147.7458804 -0.11352539 145.53955078 C-0.11324315 143.95247906 -0.11340197 142.36540721 -0.1139679 140.77833557 C-0.11425443 136.47922972 -0.10838091 132.18015185 -0.10139394 127.88105249 C-0.09513649 123.38472289 -0.09455471 118.88839262 -0.09336853 114.39205933 C-0.09026227 105.88179602 -0.08205838 97.37154559 -0.07201904 88.86128795 C-0.06083602 79.17088754 -0.05534193 69.48048652 -0.05032361 59.79008126 C-0.03987518 39.860047 -0.02228938 19.93002431 0 0 Z " fill="#010101" transform="translate(606,389)"/>
<path d="M0 0 C0.33 0 0.66 0 1 0 C1.95263613 27.67205275 2.12085454 55.31315344 2 83 C-2.2495241 83.43297473 -6.49959635 83.85997303 -10.75024414 84.28173828 C-12.19246118 84.42565412 -13.63452386 84.57112651 -15.07641602 84.71826172 C-22.73208105 85.49842308 -30.29272793 86.20667545 -38 86 C-36.35507409 80.24275931 -34.09993319 75.06071951 -31.36328125 69.74609375 C-27.00268508 61.14679206 -23.06701457 52.38687576 -19.1875 43.5625 C-18.49381469 41.99236935 -17.7998 40.42238418 -17.10546875 38.85253906 C-15.38856032 34.96810305 -13.67618544 31.08169106 -11.96575928 27.19439697 C-10.75964214 24.45385919 -9.55162766 21.71416018 -8.34358215 18.97447205 C-5.55614852 12.65238366 -2.77483503 6.32762769 0 0 Z " fill="#050504" transform="translate(538,244)"/>
<path d="M0 0 C0.33 0 0.66 0 1 0 C1 3.3 1 6.6 1 10 C1.66 10 2.32 10 3 10 C3.17667551 26.68602042 2.62808876 43.32892077 2 60 C1.67 60 1.34 60 1 60 C0.85490891 54.18748132 0.71263424 48.37490227 0.57275391 42.56225586 C0.52498904 40.59283679 0.47650958 38.62343489 0.42724609 36.65405273 C0.12211344 24.43317854 -0.07345286 12.22480106 0 0 Z " fill="#342F2C" transform="translate(604,264)"/>
</svg>
